<svg viewBox="0 0 24 24" fill="none">
  <path d="M9.99997 18C9.99997 18.5304 10.2108 19.039 10.5859 19.4141C10.961 19.7891 11.4695 20 12 20L12.1972 19.9902C12.6552 19.9449 13.0857 19.7423 13.414 19.4141C13.7891 19.039 14 18.5304 14 18H9.99997ZM5.99216 13.8848C5.97622 14.048 5.93591 14.2082 5.87302 14.3604C5.78925 14.5629 5.66657 14.7472 5.51169 14.9023L5.12107 15.293C5.05669 15.3573 5.02497 15.3895 5.0029 15.4131L5.00095 15.415V15.417C4.99992 15.4503 4.99997 15.4959 4.99997 15.5859C4.99997 15.7902 5.00029 15.9022 5.00485 15.9834C5.00505 15.9868 5.00466 15.9901 5.00485 15.9932C5.00846 15.9934 5.01242 15.9949 5.01657 15.9951C5.0968 15.9996 5.20749 16 5.41013 16H18.5898C18.7925 16 18.9038 15.9997 18.9843 15.9951C18.9874 15.9949 18.9903 15.9943 18.9931 15.9941C18.9934 15.9905 18.9948 15.9866 18.9951 15.9824C18.9997 15.9019 19 15.7904 19 15.5859C19 15.5428 19.0002 15.5094 19 15.4805C18.9998 15.4521 18.9994 15.4333 18.999 15.4199C18.9989 15.4179 18.9981 15.4157 18.998 15.4141L18.997 15.4131C18.9746 15.3892 18.9426 15.3567 18.8789 15.293L18.4883 14.9023C18.3334 14.7472 18.2107 14.5629 18.1269 14.3604C18.064 14.2082 18.0237 14.048 18.0078 13.8848L18 13.7217V10C18 9.21209 17.8445 8.43204 17.5429 7.7041C17.2414 6.97615 16.7993 6.31496 16.2422 5.75781C15.685 5.20066 15.0238 4.75856 14.2959 4.45703C13.6589 4.19319 12.9821 4.04065 12.2949 4.00684L12 4C11.2121 4 10.432 4.15552 9.70407 4.45703C8.97612 4.75856 8.31494 5.20066 7.75778 5.75781C7.20063 6.31496 6.75853 6.97615 6.457 7.7041C6.15549 8.43204 5.99997 9.21209 5.99997 10V13.7217L5.99216 13.8848ZM20 13.5859L20.2929 13.8789C20.3651 13.951 20.4559 14.0399 20.542 14.1426L20.6259 14.25L20.6269 14.251C20.8034 14.4982 20.9204 14.7826 20.9707 15.082C21.0026 15.2669 21 15.4508 21 15.5859C21 15.8904 21.0121 16.2875 20.8935 16.6387L20.8945 16.6396C20.7962 16.9312 20.6323 17.1963 20.415 17.4141C20.1975 17.6319 19.9322 17.7968 19.6406 17.8955L19.6377 17.8965C19.3761 17.9842 19.0876 17.9982 18.832 18H16C16 19.0609 15.5782 20.078 14.8281 20.8281C14.1248 21.5314 13.1869 21.9461 12.1982 21.9951L12 22C10.9391 22 9.92199 21.5783 9.17185 20.8281C8.4217 20.078 7.99997 19.0609 7.99997 18H5.16794C4.9126 17.9982 4.62482 17.9841 4.36325 17.8965L4.36228 17.8955C4.0701 17.7973 3.80405 17.6328 3.58591 17.415C3.36787 17.1972 3.20307 16.9316 3.10446 16.6396L3.10349 16.6357C2.98739 16.2872 2.99997 15.8924 2.99997 15.5859C2.99997 15.4498 2.99738 15.2701 3.02634 15.0918V15.0889C3.07659 14.7852 3.19617 14.4969 3.37595 14.2471C3.48216 14.0989 3.61155 13.9744 3.707 13.8789L3.99997 13.5859V10C3.99997 8.94943 4.20731 7.90908 4.60935 6.93848C5.01138 5.96795 5.59993 5.08559 6.34275 4.34277C7.08556 3.59995 7.96792 3.01141 8.93845 2.60938C9.90905 2.20734 10.9494 2 12 2L12.3935 2.00977C13.3097 2.05489 14.2123 2.25762 15.0615 2.60938C16.032 3.01141 16.9144 3.59995 17.6572 4.34277C18.4 5.08559 18.9886 5.96795 19.3906 6.93848C19.7926 7.90908 20 8.94943 20 10V13.5859Z" fill="#CECECE"/>
</svg>