<svg width="24" height="24" viewBox="0 0 24 24" fill="none" xmlns="http://www.w3.org/2000/svg">
<path d="M10 18C10 18.5304 10.2109 19.039 10.5859 19.4141C10.961 19.7891 11.4696 20 12 20L12.1973 19.9902C12.6553 19.9449 13.0858 19.7423 13.4141 19.4141C13.7891 19.039 14 18.5304 14 18H10ZM18 12.999V10C18 8.4087 17.3674 6.88303 16.2422 5.75781C15.1184 4.63398 13.595 4.00155 12.0059 4L11.792 4.00293L11.793 4.00391C11.1212 4.02644 10.458 4.16103 9.83105 4.40332C9.31604 4.60242 8.73638 4.34694 8.53711 3.83203C8.33796 3.3169 8.59424 2.73723 9.10938 2.53809C9.94567 2.21478 10.8304 2.03487 11.7266 2.00488L11.7432 2.00391L11.9834 2H12C14.1217 2 16.1569 2.84248 17.6572 4.34277C19.1575 5.84306 20 7.87827 20 10V12.999C20 13.5513 19.5523 13.999 19 13.999C18.4477 13.999 18 13.5513 18 12.999ZM4 10C4 8.1516 4.62798 6.44913 5.68066 5.09473L4.29297 3.70703C3.90244 3.31651 3.90244 2.68349 4.29297 2.29297C4.68349 1.90244 5.31651 1.90244 5.70703 2.29297L21.707 18.293C22.0976 18.6835 22.0976 19.3165 21.707 19.707C21.3165 20.0976 20.6835 20.0976 20.293 19.707L18.5859 18H16C16 19.0609 15.5783 20.078 14.8281 20.8281C14.1248 21.5314 13.1869 21.9461 12.1982 21.9951L12 22C10.9391 22 9.92202 21.5783 9.17188 20.8281C8.42173 20.078 8 19.0609 8 18H5C4.51013 17.9999 4.03697 17.8197 3.6709 17.4941C3.30511 17.1687 3.07104 16.7206 3.01367 16.2344C3.01143 16.2153 3.00993 16.1959 3.00879 16.1768L3.00195 16.0596C3.00077 16.0397 3 16.0199 3 16V15.4141C3.00011 14.8837 3.21093 14.375 3.58594 14L4 13.5859V10ZM4.0918 13.4932L4.0957 13.4902L4.09668 13.4883C4.09507 13.4899 4.09337 13.4915 4.0918 13.4932ZM6 13.7217L5.99219 13.8857C5.97613 14.0493 5.93621 14.21 5.87305 14.3623C5.78894 14.5651 5.66416 14.7482 5.50879 14.9033L5.50977 14.9043L5 15.4141V15.9736L5.00195 16H16.5859L7.10938 6.52344C6.41037 7.50448 6 8.70321 6 10V13.7217Z" fill="#CECECE"/>
</svg>
