<svg viewBox="0 0 24 24" fill="none" xmlns="http://www.w3.org/2000/svg">
<path d="M10 18C10 18.5304 10.2109 19.039 10.5859 19.4141C10.961 19.7891 11.4696 20 12 20L12.1973 19.9902C12.6553 19.9449 13.0858 19.7423 13.4141 19.4141C13.7891 19.039 14 18.5304 14 18H10ZM5.99219 13.8848C5.97625 14.048 5.93594 14.2082 5.87305 14.3604C5.78928 14.5629 5.6666 14.7472 5.51172 14.9023L5.1211 15.293C5.05672 15.3573 5.025 15.3895 5.00293 15.4131L5.00098 15.415V15.417C4.99995 15.4503 5 15.4959 5 15.5859C5 15.7902 5.00032 15.9022 5.00488 15.9834C5.00508 15.9868 5.00469 15.9901 5.00488 15.9932C5.00849 15.9934 5.01245 15.9949 5.0166 15.9951C5.09683 15.9996 5.20753 16 5.41016 16H18.5898C18.7926 16 18.9038 15.9997 18.9844 15.9951C18.9875 15.9949 18.9904 15.9943 18.9932 15.9941C18.9934 15.9905 18.9949 15.9866 18.9951 15.9824C18.9997 15.9019 19 15.7904 19 15.5859C19 15.5428 19.0002 15.5094 19 15.4805C18.9998 15.4521 18.9995 15.4333 18.999 15.4199C18.999 15.4179 18.9981 15.4157 18.998 15.4141L18.9971 15.4131C18.9746 15.3892 18.9427 15.3567 18.8789 15.293L18.4883 14.9023C18.3334 14.7472 18.2107 14.5629 18.127 14.3604C18.0641 14.2082 18.0238 14.048 18.0078 13.8848L18 13.7217V10C18 9.21209 17.8445 8.43204 17.543 7.7041C17.2414 6.97615 16.7993 6.31496 16.2422 5.75781C15.685 5.20066 15.0239 4.75856 14.2959 4.45703C13.6589 4.19319 12.9821 4.04065 12.2949 4.00684L12 4C11.2121 4 10.432 4.15552 9.7041 4.45703C8.97615 4.75856 8.31497 5.20066 7.75781 5.75781C7.20066 6.31496 6.75856 6.97615 6.45703 7.7041C6.15552 8.43204 6 9.21209 6 10V13.7217L5.99219 13.8848ZM20 13.5859L20.293 13.8789C20.3651 13.951 20.4559 14.0399 20.542 14.1426L20.626 14.25L20.627 14.251C20.8034 14.4982 20.9205 14.7826 20.9707 15.082C21.0026 15.2669 21 15.4508 21 15.5859C21 15.8904 21.0121 16.2875 20.8936 16.6387L20.8945 16.6396C20.7963 16.9312 20.6324 17.1963 20.415 17.4141C20.1975 17.6319 19.9322 17.7968 19.6406 17.8955L19.6377 17.8965C19.3761 17.9842 19.0876 17.9982 18.832 18H16C16 19.0609 15.5783 20.078 14.8281 20.8281C14.1248 21.5314 13.1869 21.9461 12.1982 21.9951L12 22C10.9391 22 9.92202 21.5783 9.17188 20.8281C8.42173 20.078 8 19.0609 8 18H5.16797C4.91263 17.9982 4.62485 17.9841 4.36328 17.8965L4.36231 17.8955C4.07013 17.7973 3.80408 17.6328 3.58594 17.415C3.3679 17.1972 3.2031 16.9316 3.10449 16.6396L3.10352 16.6357C2.98743 16.2872 3 15.8924 3 15.5859C3 15.4498 2.99741 15.2701 3.02637 15.0918V15.0889C3.07662 14.7852 3.1962 14.4969 3.37598 14.2471C3.4822 14.0989 3.61158 13.9744 3.70703 13.8789L4 13.5859V10C4 8.94943 4.20734 7.90908 4.60938 6.93848C5.01141 5.96795 5.59996 5.08559 6.34278 4.34277C7.0856 3.59995 7.96795 3.01141 8.93848 2.60938C9.90908 2.20734 10.9494 2 12 2L12.3936 2.00977C13.3097 2.05489 14.2123 2.25762 15.0615 2.60938C16.0321 3.01141 16.9144 3.59995 17.6572 4.34277C18.4 5.08559 18.9886 5.96795 19.3906 6.93848C19.7927 7.90908 20 8.94943 20 10V13.5859Z" fill="currentColor"/>
</svg>
