<svg width="24" height="24" viewBox="0 0 24 24" fill="none" xmlns="http://www.w3.org/2000/svg">
<path d="M3 16.7998V7.2002C3 6.6567 2.99893 6.18836 3.03028 5.80469C3.0626 5.40943 3.13448 5.01597 3.32715 4.6377C3.61498 4.07278 4.07279 3.61498 4.6377 3.32715C5.01597 3.13448 5.40944 3.06259 5.80469 3.03027C6.14046 3.00284 6.54102 3.00126 7 3.00098V2C7 1.44772 7.44772 1 8 1C8.55229 1 9 1.44772 9 2V3H15V2C15 1.44772 15.4477 1 16 1C16.5523 1 17 1.44772 17 2V3.00098C17.459 3.00126 17.8596 3.00284 18.1953 3.03027C18.5895 3.06252 18.9819 3.13399 19.3594 3.32617C19.9244 3.61353 20.3848 4.07301 20.6729 4.6377C20.8658 5.01583 20.9374 5.40897 20.9697 5.80371C21.0011 6.18706 21 6.65478 21 7.19727V16.8037C21 17.3461 21.0011 17.8133 20.9697 18.1963C20.9414 18.542 20.8834 18.8859 20.7402 19.2197L20.6729 19.3623C20.385 19.926 19.9254 20.3841 19.3604 20.6719L19.3613 20.6729C18.9833 20.8658 18.5901 20.9374 18.1953 20.9697C17.8123 21.0011 17.345 21 16.8027 21H7.19727C6.65478 21 6.18706 21.0011 5.80372 20.9697C5.45829 20.9415 5.11427 20.8826 4.78028 20.7393L4.6377 20.6729C4.07348 20.3853 3.61473 19.9265 3.32715 19.3623C3.13448 18.984 3.0626 18.5906 3.03028 18.1953C2.99893 17.8116 3 17.3433 3 16.7998ZM7.2002 5C6.6237 5 6.25111 5.00126 5.96778 5.02441C5.6963 5.04661 5.59551 5.08411 5.5459 5.10938C5.35724 5.20547 5.20548 5.35724 5.10938 5.5459C5.08411 5.5955 5.04662 5.6963 5.02442 5.96777C5.00406 6.21691 5.00142 6.53495 5.00098 7H18.999C18.9986 6.53428 18.997 6.21603 18.9766 5.9668C18.9544 5.69595 18.9165 5.59567 18.8916 5.54688C18.7957 5.35885 18.6422 5.20514 18.4541 5.10938L18.4522 5.1084C18.4034 5.08356 18.3032 5.04659 18.0322 5.02441C17.749 5.00127 17.3763 5 16.7998 5H7.2002ZM5 16.7998C5 17.3763 5.00127 17.7489 5.02442 18.0322C5.04662 18.3037 5.08411 18.4045 5.10938 18.4541L5.19141 18.5879C5.28366 18.7148 5.40484 18.8187 5.5459 18.8906L5.54688 18.8916C5.59567 18.9165 5.69595 18.9544 5.9668 18.9766C6.2497 18.9997 6.62176 19 7.19727 19H16.8027C17.378 19 17.7497 18.9997 18.0322 18.9766C18.3027 18.9544 18.4032 18.9165 18.4522 18.8916L18.4531 18.8906C18.6416 18.7946 18.7945 18.6419 18.8906 18.4541C18.9161 18.4042 18.9544 18.3036 18.9766 18.0332C18.9997 17.7507 19 17.3792 19 16.8037V9H5V16.7998Z" fill="currentColor" />
</svg>
