<svg width="24" height="24" viewBox="0 0 24 24" fill="none" xmlns="http://www.w3.org/2000/svg">
<path d="M5 17.7998V7H4C3.44772 7 3 6.55229 3 6C3 5.44772 3.44772 5 4 5H7.01562C7.01809 4.94421 7.01793 4.89008 7.02148 4.83789C7.04393 4.50839 7.09272 4.17821 7.22754 3.85254C7.37814 3.48848 7.59947 3.15762 7.87793 2.87891C8.15628 2.60033 8.48684 2.37942 8.85059 2.22852L8.85254 2.22754C9.17822 2.09308 9.50815 2.04394 9.83789 2.02148C10.1587 1.99966 10.5478 2 11 2H13C13.4522 2 13.8414 1.99965 14.1621 2.02148C14.4917 2.04394 14.8217 2.09359 15.1475 2.22852C15.5116 2.37928 15.8424 2.60021 16.1211 2.87891C16.3998 3.15761 16.6207 3.48838 16.7715 3.85254C16.9064 4.17832 16.9561 4.50827 16.9785 4.83789C16.9821 4.89008 16.9819 4.94421 16.9844 5H20C20.5523 5 21 5.44772 21 6C21 6.55229 20.5523 7 20 7H19V17.8027C19 18.3452 19.0011 18.813 18.9697 19.1963C18.9414 19.5419 18.8834 19.8859 18.7402 20.2197L18.6729 20.3623C18.385 20.926 17.9254 21.3841 17.3604 21.6719L17.3613 21.6729C16.9833 21.8658 16.59 21.9374 16.1953 21.9697C15.8123 22.0011 15.345 22 14.8027 22H9.19727C8.65478 22 8.18706 22.0011 7.80371 21.9697C7.45829 21.9415 7.11426 21.8826 6.78027 21.7393L6.6377 21.6729C6.07347 21.3853 5.61472 20.9265 5.32715 20.3623C5.13448 19.984 5.06259 19.5906 5.03027 19.1953C4.99892 18.8116 5 18.3433 5 17.7998ZM9 17V10C9 9.44772 9.44772 9 10 9C10.5523 9 11 9.44772 11 10V17C11 17.5523 10.5523 18 10 18C9.44772 18 9 17.5523 9 17ZM13 17V10C13 9.44772 13.4477 9 14 9C14.5523 9 15 9.44772 15 10V17C15 17.5523 14.5523 18 14 18C13.4477 18 13 17.5523 13 17ZM11 4C10.5205 4 10.2108 4.00046 9.97363 4.0166C9.74685 4.03205 9.65871 4.05776 9.61621 4.0752C9.49511 4.1255 9.38565 4.2002 9.29297 4.29297C9.20017 4.38586 9.12637 4.49586 9.07617 4.61719C9.0591 4.6584 9.03214 4.74551 9.0166 4.97363C9.01601 4.98231 9.01617 4.99113 9.01562 5H14.9844C14.9838 4.99113 14.984 4.98231 14.9834 4.97363C14.9679 4.74551 14.9409 4.6584 14.9238 4.61719C14.8736 4.4959 14.7999 4.3858 14.707 4.29297C14.6142 4.20013 14.5041 4.12643 14.3828 4.07617C14.3416 4.0591 14.2545 4.03214 14.0264 4.0166C13.7894 4.00046 13.4796 4 13 4H11ZM7 17.7998C7 18.3763 7.00126 18.7489 7.02441 19.0322C7.04661 19.3037 7.08411 19.4045 7.10938 19.4541L7.19141 19.5879C7.28366 19.7148 7.40484 19.8187 7.5459 19.8906L7.54688 19.8916C7.59567 19.9165 7.69595 19.9544 7.9668 19.9766C8.2497 19.9997 8.62176 20 9.19727 20H14.8027C15.378 20 15.7497 19.9997 16.0322 19.9766C16.3027 19.9544 16.4032 19.9165 16.4521 19.8916L16.4531 19.8906C16.6416 19.7946 16.7945 19.6419 16.8906 19.4541C16.916 19.4043 16.9544 19.3031 16.9766 19.0322C16.9997 18.7495 17 18.3779 17 17.8027V7H7V17.7998Z" fill="#CECECE"/>
</svg>
