<svg viewBox="0 0 24 24" fill="none" xmlns="http://www.w3.org/2000/svg">
<path d="M4 17.7998V6.2002C4 5.6567 3.99893 5.18836 4.03028 4.80469C4.0626 4.40944 4.13448 4.01597 4.32715 3.6377C4.61473 3.07348 5.07348 2.61473 5.6377 2.32715C6.01597 2.13448 6.40944 2.0626 6.80469 2.03028C7.18836 1.99893 7.6567 2 8.2002 2H13.0107L13.2285 2.00489C13.3721 2.00984 13.513 2.01963 13.6553 2.04102L13.8701 2.08204L13.876 2.08399C14.175 2.15728 14.4674 2.27642 14.7393 2.44336C15.0656 2.64372 15.3333 2.91829 15.6455 3.23145L18.7695 6.35547C19.0432 6.6291 19.2877 6.86721 19.4785 7.14063L19.5576 7.25977L19.5596 7.2627C19.682 7.46376 19.7798 7.67623 19.8525 7.89844L19.916 8.12403L19.919 8.13575C19.952 8.27872 19.9712 8.41863 19.9824 8.55957L19.999 8.98926V8.99707L20 9.32325V17.8037C20 18.3461 20.0011 18.8133 19.9697 19.1963C19.9414 19.542 19.8834 19.8859 19.7402 20.2197L19.6729 20.3623C19.385 20.926 18.9254 21.3841 18.3604 21.6719L18.3613 21.6729C17.9833 21.8658 17.5901 21.9374 17.1953 21.9697C16.8123 22.0011 16.345 22 15.8027 22H8.19727C7.65478 22 7.18706 22.0011 6.80372 21.9697C6.45829 21.9415 6.11427 21.8826 5.78028 21.7393L5.6377 21.6729C5.07348 21.3853 4.61473 20.9265 4.32715 20.3623C4.13448 19.984 4.0626 19.5906 4.03028 19.1953C3.99893 18.8116 4 18.3433 4 17.7998ZM15 16C15.5523 16 16 16.4477 16 17C16 17.5523 15.5523 18 15 18H9C8.44772 18 8 17.5523 8 17C8 16.4477 8.44772 16 9 16H15ZM15 13C15.5523 13 16 13.4477 16 14C16 14.5523 15.5523 15 15 15H9C8.44772 15 8 14.5523 8 14C8 13.4477 8.44772 13 9 13H15ZM6 17.7998C6 18.3763 6.00127 18.7489 6.02442 19.0322C6.04662 19.3037 6.08411 19.4045 6.10938 19.4541L6.19141 19.5879C6.28366 19.7148 6.40484 19.8187 6.5459 19.8906L6.54688 19.8916C6.59567 19.9165 6.69595 19.9544 6.9668 19.9766C7.2497 19.9997 7.62176 20 8.19727 20H15.8027C16.378 20 16.7497 19.9997 17.0322 19.9766C17.3027 19.9544 17.4032 19.9165 17.4522 19.8916L17.4531 19.8906C17.6416 19.7946 17.7945 19.6419 17.8906 19.4541C17.9161 19.4042 17.9544 19.3037 17.9766 19.0332C17.9997 18.7507 18 18.3793 18 17.8037V10H16.1973C15.6548 10 15.1871 10.0011 14.8037 9.96973C14.4583 9.94147 14.1143 9.88264 13.7803 9.73926L13.6377 9.67286C13.0735 9.38528 12.6147 8.92653 12.3272 8.36231C12.1345 7.98404 12.0626 7.59057 12.0303 7.19532C11.9989 6.81165 12 6.34331 12 5.79981V4H8.2002C7.6237 4 7.25111 4.00127 6.96778 4.02442C6.76448 4.04104 6.65678 4.06563 6.59473 4.0879L6.5459 4.10938C6.40484 4.1813 6.28366 4.28523 6.19141 4.41211L6.10938 4.5459C6.08411 4.59551 6.04662 4.6963 6.02442 4.96778C6.00127 5.25111 6 5.6237 6 6.2002V17.7998ZM14 5.79981C14 6.37631 14.0013 6.7489 14.0244 7.03223C14.0466 7.3037 14.0841 7.4045 14.1094 7.45411L14.1914 7.58789C14.2837 7.71478 14.4048 7.81871 14.5459 7.89063L14.5469 7.89161C14.5957 7.91647 14.696 7.95441 14.9668 7.97657C15.2497 7.99971 15.6218 8 16.1973 8H17.5801C17.5203 7.93896 17.4478 7.86288 17.3555 7.77051L14.2305 4.64551L14.2285 4.64454C14.1366 4.55232 14.0609 4.47971 14 4.41993V5.79981Z" fill="currentColor" stroke="currentColor"/>
</svg>
