<svg width="24" height="24" viewBox="0 0 24 24" fill="none" xmlns="http://www.w3.org/2000/svg">
<path d="M15.3818 3.5115C15.7332 3.39734 16.1085 3.38297 16.4658 3.46853L16.6182 3.5115L16.8232 3.59353C17.0161 3.68519 17.1733 3.80304 17.3037 3.91384C17.4686 4.05393 17.6499 4.23609 17.835 4.42068L19.5762 6.16189C19.7623 6.34805 19.9452 6.52937 20.0859 6.69509C20.2342 6.86971 20.3942 7.09194 20.4883 7.38161C20.6188 7.78328 20.6188 8.21628 20.4883 8.61794C20.3942 8.90762 20.2342 9.12985 20.0859 9.30447C20.0157 9.38721 19.935 9.47401 19.8486 9.56325L19.5762 9.83767L16.707 12.7078C16.7038 12.711 16.6996 12.7134 16.6963 12.7166L8.70703 20.7068C8.5195 20.8943 8.26522 20.9998 8 20.9998H4C3.44772 20.9998 3 20.5521 3 19.9998V15.9998C3 15.7346 3.10543 15.4803 3.29297 15.2927L14.1631 4.42263C14.3489 4.23683 14.5306 4.05452 14.6963 3.91384C14.8708 3.76571 15.0922 3.60556 15.3818 3.5115ZM5 16.4138V18.9998H7.58594L14.585 11.9998L11.999 9.41384L5 16.4138ZM15.9902 5.43826C15.9458 5.47601 15.8951 5.52365 15.8291 5.58767L15.5771 5.83669L13.4131 7.99978L15.999 10.5857L18.1621 8.42361C18.3717 8.21403 18.4858 8.09868 18.5615 8.00954C18.5642 8.00638 18.566 8.00267 18.5684 7.99978C18.566 7.99689 18.5642 7.99318 18.5615 7.99001C18.4858 7.90088 18.3717 7.78553 18.1621 7.57595L16.4229 5.83669L16.1709 5.58767C16.1047 5.52348 16.0535 5.47624 16.0088 5.43826C16.0055 5.43545 16.002 5.43295 15.999 5.43044C15.9962 5.43282 15.9934 5.4356 15.9902 5.43826Z" fill="#CECECE"/>
</svg>
