<svg viewBox="0 0 24 24" fill="none" xmlns="http://www.w3.org/2000/svg">
<path d="M15.3818 3.51174C15.7332 3.39758 16.1085 3.38321 16.4658 3.46877L16.6182 3.51174L16.8232 3.59377C17.0161 3.68543 17.1733 3.80328 17.3037 3.91409C17.4686 4.05417 17.6499 4.23633 17.835 4.42092L19.5762 6.16213C19.7623 6.34829 19.9452 6.52962 20.0859 6.69534C20.2342 6.86995 20.3942 7.09218 20.4883 7.38186C20.6188 7.78352 20.6188 8.21652 20.4883 8.61819C20.3942 8.90786 20.2342 9.13009 20.0859 9.30471C20.0157 9.38746 19.935 9.47425 19.8486 9.5635L19.5762 9.83791L16.707 12.708C16.7038 12.7113 16.6996 12.7136 16.6963 12.7168L8.70703 20.7071C8.5195 20.8946 8.26522 21 8 21H4C3.44772 21 3 20.5523 3 20V16C3 15.7348 3.10543 15.4805 3.29297 15.293L14.1631 4.42287C14.3489 4.23707 14.5306 4.05477 14.6963 3.91409C14.8708 3.76595 15.0922 3.60581 15.3818 3.51174ZM5 16.4141V19H7.58594L14.585 12L11.999 9.41408L5 16.4141ZM15.9902 5.4385C15.9458 5.47625 15.8951 5.52389 15.8291 5.58791L15.5771 5.83694L13.4131 8.00002L15.999 10.586L18.1621 8.42385C18.3717 8.21427 18.4858 8.09892 18.5615 8.00979C18.5642 8.00662 18.566 8.00291 18.5684 8.00002C18.566 7.99713 18.5642 7.99343 18.5615 7.99026C18.4858 7.90112 18.3717 7.78577 18.1621 7.57619L16.4229 5.83694L16.1709 5.58791C16.1047 5.52373 16.0535 5.47648 16.0088 5.4385C16.0055 5.43569 16.002 5.43319 15.999 5.43069C15.9962 5.43307 15.9934 5.43584 15.9902 5.4385Z" fill="currentColor"/>
</svg>
