<svg viewBox="0 0 24 24" fill="none" xmlns="http://www.w3.org/2000/svg">
<path d="M19 11.4523C19 10.8663 18.9928 10.7503 18.9678 10.6545C18.939 10.5446 18.8909 10.4408 18.8271 10.3468C18.7707 10.2645 18.6842 10.1762 18.25 9.79802L18.248 9.79606L13.4482 5.59684C13.0642 5.26066 12.8173 5.0451 12.6162 4.8947C12.4254 4.75202 12.3352 4.7145 12.2842 4.69938L12.2822 4.69841C12.0984 4.64377 11.9016 4.64334 11.7158 4.69841L11.7148 4.69938C11.6638 4.71451 11.5741 4.75144 11.3838 4.89372C11.1828 5.04398 10.9365 5.25863 10.5518 5.59489L5.75195 9.79606C5.42039 10.0864 5.29153 10.2051 5.22461 10.2804L5.17285 10.3459C5.10875 10.4401 5.06111 10.5452 5.03223 10.6554C5.00756 10.7496 5 10.8656 5 11.4523V17.0002C5 17.4797 5.00046 17.7896 5.0166 18.0265C5.02438 18.1406 5.03516 18.2193 5.0459 18.2746L5.07617 18.382C5.12637 18.5032 5.20022 18.6144 5.29297 18.7072C5.38577 18.8001 5.49592 18.8737 5.61719 18.924C5.65959 18.9414 5.74641 18.9681 5.97363 18.9836C6.21075 18.9997 6.52049 19.0002 7 19.0002C7.47951 19.0002 7.78925 18.9997 8.02637 18.9836C8.25211 18.9682 8.3401 18.9414 8.38281 18.924C8.50408 18.8737 8.61423 18.8001 8.70703 18.7072C8.79986 18.6143 8.87363 18.5034 8.92383 18.382C8.94089 18.3408 8.96787 18.2543 8.9834 18.0265C8.99954 17.7896 9 17.4797 9 17.0002V16.0002C9 15.2045 9.3163 14.4407 9.87891 13.8781C10.4415 13.3157 11.2045 13.0002 12 13.0002C12.7955 13.0002 13.5585 13.3157 14.1211 13.8781C14.6837 14.4407 15 15.2045 15 16.0002V17.0002C15 17.4797 15.0005 17.7896 15.0166 18.0265C15.0244 18.1406 15.0352 18.2193 15.0459 18.2746L15.0762 18.382C15.1264 18.5032 15.2002 18.6144 15.293 18.7072C15.3858 18.8001 15.4959 18.8737 15.6172 18.924C15.6596 18.9414 15.7464 18.9681 15.9736 18.9836C16.2108 18.9997 16.5205 19.0002 17 19.0002C17.4795 19.0002 17.7892 18.9997 18.0264 18.9836C18.2521 18.9682 18.3401 18.9414 18.3828 18.924C18.5041 18.8737 18.6142 18.8001 18.707 18.7072C18.7999 18.6143 18.8736 18.5034 18.9238 18.382C18.9409 18.3408 18.9679 18.2543 18.9834 18.0265C18.9995 17.7896 19 17.4797 19 17.0002V11.4523ZM21 17.0002C21 17.4524 21.0004 17.8416 20.9785 18.1623C20.9561 18.4916 20.9071 18.8212 20.7725 19.1467C20.6219 19.5107 20.4005 19.8425 20.1221 20.1213C19.8437 20.3998 19.5131 20.6208 19.1494 20.7717L19.1475 20.7726C18.8218 20.9071 18.4918 20.9562 18.1621 20.9787C17.8413 21.0005 17.4522 21.0002 17 21.0002C16.5478 21.0002 16.1587 21.0005 15.8379 20.9787C15.5082 20.9562 15.1782 20.9071 14.8525 20.7726L14.8506 20.7717C14.4869 20.6208 14.1563 20.3998 13.8779 20.1213C13.5995 19.8425 13.3781 19.5107 13.2275 19.1467C13.0929 18.8212 13.0439 18.4916 13.0215 18.1623C12.9996 17.8416 13 17.4524 13 17.0002V16.0002C13 15.735 12.8945 15.4807 12.707 15.2931C12.5195 15.1056 12.2652 15.0002 12 15.0002C11.7348 15.0002 11.4805 15.1056 11.293 15.2931C11.1055 15.4807 11 15.735 11 16.0002V17.0002C11 17.4524 11.0004 17.8416 10.9785 18.1623C10.9561 18.4916 10.9071 18.8212 10.7725 19.1467C10.6219 19.5107 10.4005 19.8425 10.1221 20.1213C9.84372 20.3998 9.51314 20.6208 9.14941 20.7717L9.14746 20.7726C8.82181 20.9071 8.49182 20.9562 8.16211 20.9787C7.84132 21.0005 7.45219 21.0002 7 21.0002C6.54781 21.0002 6.15868 21.0005 5.83789 20.9787C5.50818 20.9562 5.17819 20.9071 4.85254 20.7726L4.85059 20.7717C4.48686 20.6208 4.15628 20.3998 3.87793 20.1213C3.59945 19.8425 3.37814 19.5107 3.22754 19.1467C3.09292 18.8212 3.04392 18.4916 3.02148 18.1623C2.99964 17.8416 3 17.4524 3 17.0002V11.1017C3.00278 10.7617 3.01871 10.4499 3.09766 10.1486L3.17285 9.90348C3.25849 9.66264 3.37538 9.43378 3.51953 9.22184C3.75238 8.87921 4.07219 8.60848 4.43457 8.29118L9.23535 4.08903C9.59643 3.77345 9.91007 3.49885 10.1865 3.29216C10.4732 3.07786 10.7795 2.8894 11.1484 2.78044C11.7038 2.61589 12.2942 2.61675 12.8496 2.78141C13.2186 2.89034 13.5264 3.07755 13.8135 3.29216C14.0907 3.4994 14.4041 3.77457 14.7656 4.09098L19.5654 8.29118C19.9336 8.61182 20.2481 8.87924 20.4814 9.22184L20.4824 9.2238C20.6739 9.50602 20.816 9.81867 20.9023 10.1486C20.9811 10.4502 20.9972 10.7619 21 11.1017V17.0002Z" fill="currentColor" stroke="currentColor"/>
</svg>
