<svg viewBox="0 0 24 24" fill="none" xmlns="http://www.w3.org/2000/svg">
<path d="M20.4453 15.1679C20.9048 14.8616 21.5257 14.9858 21.832 15.4453C22.1384 15.9048 22.0142 16.5256 21.5547 16.832L12.5547 22.832C12.2188 23.0559 11.7812 23.0559 11.4453 22.832L2.44531 16.832C1.98578 16.5256 1.86161 15.9048 2.16797 15.4453C2.47432 14.9858 3.09516 14.8616 3.55469 15.1679L12 20.7978L20.4453 15.1679ZM20.4453 11.1679C20.9048 10.8616 21.5257 10.9858 21.832 11.4453C22.1384 11.9048 22.0142 12.5256 21.5547 12.832L12.5547 18.832C12.2188 19.0559 11.7812 19.0559 11.4453 18.832L2.44531 12.832C1.98578 12.5256 1.86161 11.9048 2.16797 11.4453C2.47432 10.9858 3.09516 10.8616 3.55469 11.1679L12 16.7978L20.4453 11.1679ZM11.5752 1.09469C11.8887 0.947501 12.2606 0.9719 12.5547 1.16794L21.5547 7.16794C21.8329 7.3534 22 7.66561 22 7.99997C22 8.33432 21.8329 8.64653 21.5547 8.832L12.5547 14.832C12.2188 15.0559 11.7812 15.0559 11.4453 14.832L2.44531 8.832C2.16711 8.64653 2 8.33432 2 7.99997C2 7.66561 2.16711 7.3534 2.44531 7.16794L11.4453 1.16794L11.5752 1.09469ZM4.80273 7.99997L12 12.7978L19.1973 7.99997L12 3.20114L4.80273 7.99997Z" fill="currentColor" stroke="currentColor"/>
</svg>
