<svg width="24" height="24" viewBox="0 0 24 24" fill="none" xmlns="http://www.w3.org/2000/svg">
<path d="M10 18C10 17.4696 10.2109 16.961 10.5859 16.5859C10.961 16.2109 11.4696 16 12 16C12.5304 16 13.039 16.2109 13.4141 16.5859C13.7891 16.961 14 17.4696 14 18C14 18.5304 13.7891 19.039 13.4141 19.4141C13.039 19.7891 12.5304 20 12 20C11.4696 20 10.961 19.7891 10.5859 19.4141C10.2109 19.039 10 18.5304 10 18ZM10 12C10 11.4696 10.2109 10.961 10.5859 10.5859C10.961 10.2109 11.4696 10 12 10C12.5304 10 13.039 10.2109 13.4141 10.5859C13.7891 10.961 14 11.4696 14 12C14 12.5304 13.7891 13.039 13.4141 13.4141C13.039 13.7891 12.5304 14 12 14C11.4696 14 10.961 13.7891 10.5859 13.4141C10.2109 13.039 10 12.5304 10 12ZM10 6C10 5.46957 10.2109 4.96101 10.5859 4.58594C10.961 4.21087 11.4696 4 12 4C12.5304 4 13.039 4.21087 13.4141 4.58594C13.7891 4.96101 14 5.46957 14 6C14 6.53043 13.7891 7.03899 13.4141 7.41406C13.039 7.78913 12.5304 8 12 8C11.4696 8 10.961 7.78913 10.5859 7.41406C10.2109 7.03899 10 6.53043 10 6Z" fill="currentColor" stroke="currentColor"/>
</svg>
