<svg viewBox="0 0 24 24" fill="none" xmlns="http://www.w3.org/2000/svg">
<path d="M9.00001 13.5967C9.00001 13.301 8.99876 13.1395 8.98927 13.0234C8.98891 13.019 8.98769 13.0147 8.98732 13.0107C8.98375 13.0104 8.97951 13.0101 8.9756 13.0098C8.85865 13.0003 8.69608 13 8.4004 13H6.00001V15.4004C6.00001 15.6966 6.00123 15.8591 6.01076 15.9756C6.01109 15.9797 6.01139 15.9836 6.01173 15.9873C6.01576 15.9877 6.01994 15.9889 6.02443 15.9893C6.14065 15.9988 6.3024 16 6.59767 16H8.40236C8.69807 16 8.85956 15.9988 8.9756 15.9893C8.97969 15.9889 8.98362 15.9876 8.98732 15.9873C8.98766 15.9836 8.98893 15.9797 8.98927 15.9756C8.99879 15.8591 9.00001 15.6966 9.00001 15.4004V13.5967ZM18 13.5967C18 13.301 17.9988 13.1395 17.9893 13.0234C17.9889 13.019 17.9877 13.0147 17.9873 13.0107C17.9838 13.0104 17.9795 13.0101 17.9756 13.0098C17.8587 13.0003 17.6961 13 17.4004 13H15V15.4004C15 15.6966 15.0012 15.8591 15.0108 15.9756C15.0111 15.9797 15.0114 15.9836 15.0117 15.9873C15.0158 15.9877 15.0199 15.9889 15.0244 15.9893C15.1408 15.9988 15.3029 16 15.5986 16H17.4004C17.6967 16 17.8584 15.9988 17.9746 15.9893C17.9791 15.9889 17.9833 15.9877 17.9873 15.9873C17.9877 15.9833 17.9889 15.9791 17.9893 15.9746C17.9988 15.8585 18 15.6968 18 15.4004V13.5967ZM11 15.4004C11 15.6638 11.0011 15.9219 10.9834 16.1387C10.9647 16.3672 10.9204 16.637 10.7822 16.9082L10.7803 16.9111C10.5898 17.282 10.2861 17.5887 9.90919 17.7812L9.90822 17.7822C9.63716 17.9203 9.36734 17.9647 9.13869 17.9834C8.9222 18.0011 8.66506 18 8.40236 18H6.59767C6.33528 18 6.07798 18.0011 5.86134 17.9834C5.63295 17.9647 5.36308 17.9204 5.09181 17.7822C4.71556 17.5905 4.40952 17.2845 4.21779 16.9082C4.07965 16.637 4.03532 16.3672 4.01662 16.1387C3.9989 15.9219 4.00001 15.6638 4.00001 15.4004V10C4.00001 8.93913 4.42174 7.92202 5.17189 7.17188C5.92203 6.42173 6.93915 6 8.00001 6C8.5523 6 9.00001 6.44772 9.00001 7C9.00001 7.55228 8.5523 8 8.00001 8C7.46958 8 6.96102 8.21086 6.58595 8.58594C6.21088 8.96101 6.00001 9.46957 6.00001 10V11H8.4004C8.66392 11 8.92135 10.9991 9.13771 11.0166C9.36546 11.0351 9.63396 11.0785 9.90431 11.2148L9.90822 11.2168C10.2375 11.3846 10.5129 11.6399 10.7051 11.9531L10.7822 12.0908L10.8692 12.2939C10.9406 12.4946 10.9694 12.689 10.9834 12.8604C11.0011 13.0768 11 13.334 11 13.5967V15.4004ZM20 15.4004C20 15.6635 20.0003 15.9214 19.9824 16.1387C19.9682 16.3107 19.9397 16.5062 19.8672 16.708L19.7793 16.9111C19.5888 17.282 19.2851 17.5887 18.9082 17.7812L18.9072 17.7822C18.6361 17.9203 18.3665 17.9647 18.1377 17.9834C17.9211 18.0011 17.6637 18 17.4004 18H15.5986C15.3358 18 15.0781 18.0011 14.8613 17.9834C14.6329 17.9647 14.363 17.9204 14.0918 17.7822C13.7156 17.5905 13.4095 17.2845 13.2178 16.9082C13.0797 16.637 13.0353 16.3672 13.0166 16.1387C12.9989 15.9219 13 15.6638 13 15.4004V10C13 8.93913 13.4217 7.92202 14.1719 7.17188C14.922 6.42173 15.9391 6 17 6C17.5523 6 18 6.44772 18 7C18 7.55228 17.5523 8 17 8C16.4696 8 15.961 8.21087 15.586 8.58594C15.2109 8.96101 15 9.46957 15 10V11H17.4004C17.6639 11 17.9214 10.9991 18.1377 11.0166C18.3655 11.0351 18.634 11.0785 18.9043 11.2148L18.9082 11.2168C19.2375 11.3846 19.5129 11.6399 19.7051 11.9531L19.7822 12.0908L19.8692 12.2939C19.9406 12.4946 19.9694 12.689 19.9834 12.8604C20.0011 13.0768 20 13.334 20 13.5967V15.4004Z" fill="currentColor"/>
</svg>
