<svg viewBox="0 0 22 22" fill="none" xmlns="http://www.w3.org/2000/svg">
<path d="M7.24307 0.636277C7.6096 0.559676 7.98705 0.552751 8.35538 0.614792L8.5126 0.645066L8.51358 0.646042C9.02231 0.760709 9.47543 1.04487 10.0077 1.36479L10.0067 1.36577L10.3642 1.57866L10.369 1.58159C10.3839 1.59058 10.3969 1.59877 10.4071 1.60503C10.4181 1.6117 10.4258 1.61619 10.4315 1.61968L10.4335 1.62065L10.4482 1.62846C10.5875 1.70611 10.7438 1.74936 10.9032 1.75444H11.0663C11.0766 1.75431 11.0746 1.75502 11.0683 1.75542C11.0786 1.75477 11.0892 1.75379 11.0995 1.75346C11.2606 1.74842 11.414 1.70563 11.5507 1.62944C11.5783 1.61371 11.5941 1.60542 11.6317 1.58257L11.6386 1.57768L11.9931 1.36675L11.995 1.36577C12.5194 1.05204 12.9729 0.765468 13.4804 0.651902L13.6366 0.621628C14.0036 0.559593 14.3797 0.566541 14.745 0.642136C15.2546 0.747527 15.7128 1.02502 16.245 1.33159L16.7382 1.61577C17.2751 1.92437 17.7449 2.18219 18.0917 2.57085C18.3763 2.88975 18.5893 3.2664 18.7167 3.67436C18.8727 4.17178 18.8515 4.70826 18.8407 5.31889L18.8349 5.73979C18.8347 5.75167 18.8345 5.76406 18.8339 5.77593C18.8238 5.97935 18.8757 6.18113 18.9833 6.35405C18.99 6.3648 18.9966 6.37625 19.0028 6.38725C19.011 6.40159 19.0199 6.4159 19.0253 6.42534C19.0312 6.43568 19.0352 6.442 19.038 6.44682L19.0331 6.43999L19.0507 6.46733C19.1337 6.601 19.2473 6.71288 19.3817 6.79448L19.4696 6.84526L19.8368 7.04936L19.8378 7.05034C20.3738 7.34799 20.8462 7.59679 21.1982 7.97905L21.3026 8.09917C21.5397 8.38509 21.7222 8.7127 21.8398 9.06596L21.8407 9.06792C22.0038 9.56058 21.9932 10.0938 21.994 10.7085L21.996 11.2828V11.7291C21.9927 12.1612 21.9699 12.5539 21.8485 12.9244L21.8476 12.9263C21.7144 13.3301 21.4964 13.7055 21.204 14.022L21.203 14.021C20.9372 14.3095 20.6026 14.5225 20.2245 14.7369L19.8319 14.9556L19.4706 15.1558L19.4687 15.1568L19.3827 15.2037C19.2476 15.2851 19.1341 15.3979 19.0507 15.5318L18.995 15.6255C18.9914 15.6316 18.988 15.6381 18.9843 15.6441C18.8885 15.7985 18.8363 15.9761 18.8339 16.1578V16.2535L18.8417 16.6939C18.8525 17.3023 18.8728 17.8329 18.7187 18.3277L18.7177 18.3296C18.5912 18.7326 18.3824 19.1087 18.0956 19.4302L18.0946 19.4292C17.7507 19.816 17.2832 20.0742 16.7567 20.3804L16.7558 20.3814L16.2607 20.6685C15.7278 20.9776 15.2677 21.2579 14.7577 21.3648L14.7548 21.3658C14.3371 21.4519 13.9062 21.4467 13.4901 21.3531C13.1071 21.268 12.7556 21.087 12.3798 20.8667L11.9931 20.6353L11.619 20.4097L11.5507 20.3687C11.4445 20.3107 11.3308 20.273 11.2157 20.2554L11.0985 20.2447H10.9003L10.9013 20.2457C10.7462 20.2505 10.595 20.2909 10.4579 20.3648L10.3632 20.4195L10.0097 20.6324C9.48281 20.9483 9.02877 21.2337 8.51944 21.3472L8.52042 21.3482C8.1047 21.4414 7.67395 21.4442 7.25674 21.358C6.74678 21.2527 6.28881 20.9745 5.75674 20.6685H5.75479L5.26163 20.3833C4.7296 20.0761 4.25597 19.8173 3.90909 19.4283C3.62408 19.1088 3.41046 18.7331 3.28311 18.3257C3.12755 17.8283 3.14826 17.2915 3.15909 16.6724L3.16592 16.2662L3.1669 16.232C3.1759 16.0552 3.13779 15.8794 3.05655 15.7222L2.996 15.6128C2.99229 15.6062 2.98882 15.5991 2.98526 15.5923C2.89994 15.4309 2.77174 15.2956 2.61514 15.2017C2.61072 15.1991 2.60585 15.1966 2.60147 15.1939C2.60147 15.1939 2.59837 15.192 2.59659 15.191C2.58849 15.1865 2.58101 15.1819 2.56729 15.1744C2.55455 15.1674 2.53885 15.1597 2.52139 15.1499L2.16397 14.9507C1.62626 14.6517 1.15491 14.4032 0.802643 14.022L0.80069 14.0201C0.548556 13.746 0.350059 13.4276 0.214752 13.0816L0.161041 12.9312C-0.00188705 12.4391 0.00665051 11.9091 0.00576782 11.2916L0.0038147 10.7291V10.2759C0.00762533 9.84088 0.0315746 9.44831 0.152252 9.07768L0.153229 9.07378C0.287552 8.66694 0.508049 8.29378 0.798737 7.97905C1.15287 7.59382 1.6297 7.34325 2.16983 7.04448L2.52432 6.84721L2.61514 6.79546C2.75196 6.71346 2.86805 6.60099 2.95206 6.46538L2.96378 6.44682C2.9705 6.43522 2.98699 6.40642 3.00577 6.37456L3.01749 6.35405C3.1133 6.19977 3.16529 6.02197 3.16788 5.84038V5.8355C3.16727 5.81611 3.16615 5.78443 3.16592 5.7437L3.15225 4.8726C3.14922 4.43881 3.16705 4.04628 3.28214 3.67436V3.67241C3.40903 3.26535 3.6218 2.89041 3.90518 2.57182C4.24701 2.18693 4.7089 1.92916 5.23428 1.62553C5.23953 1.62236 5.2446 1.61885 5.24991 1.61577L5.73819 1.33257L5.76065 1.32182C6.28547 1.01707 6.7379 0.741897 7.24307 0.636277ZM8.0751 2.59624C7.93611 2.56521 7.79166 2.56515 7.65225 2.59428C7.53178 2.6195 7.39734 2.68365 6.74503 3.06206C6.74321 3.06311 6.74099 3.06394 6.73917 3.06499L6.26163 3.34136C6.25684 3.34423 6.25279 3.34833 6.24796 3.35112C5.60266 3.72425 5.47984 3.81028 5.4003 3.89995L5.39932 3.90093C5.30539 4.00654 5.23369 4.13036 5.19131 4.26518L5.19229 4.26616C5.16494 4.35475 5.15221 4.46251 5.15323 4.82671L5.15909 5.28569L5.16592 5.7105C5.16601 5.716 5.16592 5.72159 5.16592 5.7271C5.16592 5.74321 5.16634 5.75493 5.1669 5.773C5.16715 5.7811 5.16759 5.79736 5.16788 5.81401C5.16819 5.8325 5.16882 5.85799 5.16788 5.88725L5.1669 5.88628C5.15633 6.41756 5.00432 6.93574 4.72745 7.38921L4.72842 7.39018C4.71443 7.41394 4.70655 7.42684 4.69327 7.44975C4.68423 7.46534 4.66924 7.48966 4.65128 7.51811C4.39836 7.92637 4.05191 8.26901 3.63956 8.51518C3.63224 8.51955 3.62452 8.5237 3.6171 8.52788L3.50479 8.59038L3.49991 8.59429L3.13858 8.7935L3.1376 8.79448C2.47565 9.16065 2.35193 9.24358 2.27042 9.33257L2.26749 9.3355C2.17058 9.44041 2.09742 9.56511 2.05264 9.70073C2.01473 9.81966 2.00276 9.97664 2.00381 10.7212L2.00577 11.2847V11.2867C2.00686 12.0334 2.02071 12.185 2.05948 12.3023C2.10408 12.437 2.17729 12.5612 2.27335 12.6656C2.357 12.7558 2.48228 12.8393 3.13565 13.2027L3.49405 13.4019L3.49503 13.4029C3.5248 13.4195 3.53656 13.4256 3.56436 13.441C3.58381 13.4517 3.61119 13.4679 3.64249 13.4869C3.6445 13.4881 3.64731 13.4896 3.64932 13.4908C3.65154 13.4921 3.65391 13.4933 3.65616 13.4947C4.11372 13.772 4.48744 14.1663 4.74112 14.6373L4.80948 14.7574L4.81924 14.7769C5.0672 15.2451 5.18581 15.7704 5.16495 16.2994L5.16592 16.3003L5.15909 16.7076C5.14592 17.4604 5.15585 17.6125 5.19229 17.729C5.22431 17.8315 5.27277 17.9276 5.33487 18.0142L5.40128 18.0972C5.48235 18.1881 5.60507 18.2724 6.26065 18.6509L6.75284 18.9351C7.40676 19.3111 7.54103 19.3752 7.66104 19.3999C7.80002 19.4286 7.94443 19.4271 8.08292 19.396H8.08487C8.20316 19.3696 8.33635 19.3039 8.98233 18.9165L9.34561 18.6988L9.45889 18.6324L9.47842 18.6216C9.89452 18.3911 10.3599 18.2616 10.8388 18.2466L10.8622 18.2457L10.9921 18.2447H11.1298C11.1401 18.2447 11.1507 18.2453 11.161 18.2457C11.5808 18.2589 11.9912 18.3608 12.3661 18.5406L12.5243 18.6226L12.5526 18.6392L12.6454 18.6939L12.6474 18.6949L13.0214 18.9205C13.6698 19.3095 13.8046 19.3754 13.9237 19.4019L13.9276 19.4029C14.0667 19.4343 14.2109 19.4356 14.3505 19.4068C14.4698 19.3813 14.6086 19.314 15.2567 18.938L15.7528 18.6509C16.4001 18.2744 16.5207 18.1902 16.6005 18.1001L16.6024 18.0982C16.6955 17.9939 16.7659 17.8698 16.8095 17.731C16.836 17.6449 16.8486 17.5392 16.8476 17.1822L16.8417 16.73L16.8339 16.2906V16.1324C16.8408 15.5939 16.9929 15.0673 17.2733 14.608L17.3378 14.4986L17.3485 14.48C17.6014 14.0719 17.9491 13.731 18.3612 13.4849L18.3886 13.4683L18.4989 13.4078L18.537 13.3873L18.8622 13.2066L19.2665 12.9791C19.5854 12.7964 19.6709 12.7334 19.7333 12.6656L19.7343 12.6646C19.8298 12.5612 19.9033 12.4364 19.9482 12.3003C19.9859 12.1846 19.9982 12.0327 19.996 11.2896L19.994 10.7154V10.7134C19.993 9.96376 19.9799 9.81349 19.9413 9.69682C19.8965 9.56307 19.8241 9.43921 19.7284 9.3355L19.7265 9.33354C19.6446 9.24469 19.5204 9.16177 18.8661 8.79839L18.8632 8.79643L18.497 8.59233L18.4911 8.5894L18.3778 8.52495C18.3707 8.52087 18.3634 8.5165 18.3564 8.51225C17.9476 8.26691 17.603 7.92798 17.3515 7.523L17.3524 7.52202C17.3164 7.46529 17.2827 7.40769 17.2665 7.37944C16.9631 6.87806 16.8128 6.29812 16.8349 5.71245L16.8407 5.28667V5.28374C16.854 4.53455 16.8444 4.38648 16.8085 4.27202C16.7767 4.16993 16.7289 4.07244 16.6669 3.98589L16.5995 3.90288C16.5184 3.81196 16.3946 3.72517 15.7421 3.35014L15.7401 3.34917L15.247 3.06401C14.758 2.78233 14.5596 2.67643 14.4403 2.63042L14.3398 2.60014C14.2006 2.57135 14.0565 2.57295 13.9179 2.60405C13.7997 2.63055 13.6662 2.69681 13.0214 3.08257L13.0165 3.0855L12.663 3.29643L12.662 3.29546C12.5961 3.33531 12.5556 3.35936 12.5341 3.37163L12.5253 3.37651C12.1148 3.60536 11.6587 3.73128 11.1923 3.75053L11.1933 3.75151C11.1855 3.752 11.1776 3.75114 11.1698 3.75151C11.1673 3.7516 11.1645 3.75241 11.162 3.75249L11.161 3.75151C11.1021 3.75408 11.0456 3.75542 11.0009 3.75542H10.9931L10.8632 3.75444C10.8552 3.75438 10.8468 3.75372 10.8388 3.75346C10.3604 3.73816 9.89265 3.60853 9.47452 3.37553C9.42226 3.34677 9.36814 3.31319 9.33585 3.2935L8.97842 3.07964C8.33451 2.69263 8.19603 2.62367 8.0751 2.59624Z" fill="currentColor" stroke="currentColor"/>
<path d="M14 11.0001C14 10.2044 13.6837 9.44161 13.1211 8.879C12.5585 8.31639 11.7956 8.0001 11 8.0001C10.2043 8.0001 9.4415 8.31639 8.87889 8.879C8.31629 9.44161 7.99999 10.2044 7.99999 11.0001C7.99999 11.7957 8.31629 12.5586 8.87889 13.1212C9.4415 13.6838 10.2043 14.0001 11 14.0001C11.7956 14.0001 12.5585 13.6838 13.1211 13.1212C13.6837 12.5586 14 11.7957 14 11.0001ZM16 11.0001C16 12.3262 15.4728 13.5976 14.5351 14.5353C13.5975 15.4729 12.3261 16.0001 11 16.0001C9.67391 16.0001 8.40251 15.4729 7.46483 14.5353C6.52715 13.5976 5.99999 12.3262 5.99999 11.0001C5.99999 9.67401 6.52715 8.40262 7.46483 7.46494C8.40251 6.52726 9.67391 6.0001 11 6.0001C12.3261 6.0001 13.5975 6.52726 14.5351 7.46494C15.4728 8.40262 16 9.67401 16 11.0001Z" fill="currentColor" stroke="currentColor"/>
</svg>
