<svg width="24" height="24" viewBox="0 0 24 24" fill="none" xmlns="http://www.w3.org/2000/svg">
<path d="M17 19C17 18.3333 16.5952 17.6074 15.6885 17.0029C14.7886 16.4031 13.4872 16 12 16C10.5128 16 9.21144 16.4031 8.31152 17.0029C7.40478 17.6074 7 18.3333 7 19C7 19.5523 6.55228 20 6 20C5.44772 20 5 19.5523 5 19C5 17.4568 5.93754 16.1819 7.20215 15.3389C8.47373 14.4912 10.1732 14 12 14C13.8268 14 15.5263 14.4912 16.7979 15.3389C18.0625 16.1819 19 17.4568 19 19C19 19.5523 18.5523 20 18 20C17.4477 20 17 19.5523 17 19ZM14.9854 7.70312C14.9171 7.01649 14.6133 6.3711 14.1211 5.87891C13.6289 5.38671 12.9835 5.08291 12.2969 5.01465L12 5C11.2044 5 10.4415 5.3163 9.87891 5.87891C9.3163 6.44152 9 7.20435 9 8L9.01465 8.29688C9.08291 8.98351 9.38671 9.6289 9.87891 10.1211C10.4415 10.6837 11.2044 11 12 11L12.2969 10.9854C12.9835 10.9171 13.6289 10.6133 14.1211 10.1211C14.6837 9.55848 15 8.79565 15 8L14.9854 7.70312ZM16.9941 8.24805C16.9328 9.48382 16.4142 10.6561 15.5352 11.5352C14.6561 12.4142 13.4838 12.9328 12.248 12.9941L12 13C10.6739 13 9.40253 12.4728 8.46484 11.5352C7.58579 10.6561 7.06719 9.48382 7.00586 8.24805L7 8C7 6.67392 7.52716 5.40253 8.46484 4.46484C9.40253 3.52716 10.6739 3 12 3L12.248 3.00586C13.4838 3.06719 14.6561 3.58579 15.5352 4.46484C16.4728 5.40253 17 6.67392 17 8L16.9941 8.24805Z" fill="currentColor" stroke="currentColor"/>
</svg>
