<svg viewBox="0 0 24 24" fill="none" xmlns="http://www.w3.org/2000/svg">
<path d="M14 20C14 19.3333 13.5952 18.6074 12.6885 18.0029C11.7886 17.4031 10.4872 17 9 17C7.51277 17 6.21144 17.4031 5.31152 18.0029C4.40477 18.6074 4 19.3333 4 20C4 20.5523 3.55228 21 3 21C2.44772 21 2 20.5523 2 20C2 18.4568 2.93754 17.1819 4.20215 16.3389C5.47373 15.4912 7.17323 15 9 15C10.8268 15 12.5263 15.4912 13.7979 16.3389C15.0625 17.1819 16 18.4568 16 20C16 20.5523 15.5523 21 15 21C14.4477 21 14 20.5523 14 20ZM20 20C20 18.9572 18.9275 17.7094 16.7705 17.2002C16.233 17.0733 15.8995 16.5346 16.0264 15.9971C16.1533 15.4597 16.6921 15.1272 17.2295 15.2539C19.7323 15.8447 22 17.5589 22 20C22 20.5523 21.5523 21 21 21C20.4477 21 20 20.5523 20 20ZM12 9C12 8.20435 11.6837 7.44152 11.1211 6.87891C10.5585 6.3163 9.79565 6 9 6C8.20435 6 7.44151 6.3163 6.87891 6.87891C6.3163 7.44152 6 8.20435 6 9C6 9.79565 6.3163 10.5585 6.87891 11.1211C7.44151 11.6837 8.20435 12 9 12C9.79565 12 10.5585 11.6837 11.1211 11.1211C11.6837 10.5585 12 9.79565 12 9ZM18 9C18 8.20435 17.6837 7.44152 17.1211 6.87891C16.5585 6.3163 15.7956 6 15 6C14.4477 6 14 5.55228 14 5C14 4.44772 14.4477 4 15 4C16.3261 4 17.5975 4.52716 18.5352 5.46484C19.4728 6.40253 20 7.67392 20 9C20 10.3261 19.4728 11.5975 18.5352 12.5352C17.5975 13.4728 16.3261 14 15 14C14.4477 14 14 13.5523 14 13C14 12.4477 14.4477 12 15 12C15.7956 12 16.5585 11.6837 17.1211 11.1211C17.6837 10.5585 18 9.79565 18 9ZM14 9C14 10.3261 13.4728 11.5975 12.5352 12.5352C11.5975 13.4728 10.3261 14 9 14C7.67392 14 6.40253 13.4728 5.46484 12.5352C4.52716 11.5975 4 10.3261 4 9C4 7.67392 4.52716 6.40253 5.46484 5.46484C6.40253 4.52716 7.67392 4 9 4C10.3261 4 11.5975 4.52716 12.5352 5.46484C13.4728 6.40253 14 7.67392 14 9Z" fill="currentColor" stroke="currentColor"/>
</svg>
